<?xml version="1.0" encoding="UTF-8" standalone="no"?>
<svg
   xmlns:dc="http://purl.org/dc/elements/1.1/"
   xmlns:cc="http://creativecommons.org/ns#"
   xmlns:rdf="http://www.w3.org/1999/02/22-rdf-syntax-ns#"
   xmlns:svg="http://www.w3.org/2000/svg"
   xmlns="http://www.w3.org/2000/svg"
   xmlns:sodipodi="http://sodipodi.sourceforge.net/DTD/sodipodi-0.dtd"
   xmlns:inkscape="http://www.inkscape.org/namespaces/inkscape"
   width="969.76465"
   height="909.15302"
   viewBox="0 0 775.81172 727.32241"
   version="1.1"
   id="svg2"
   inkscape:version="0.48.1 "
   sodipodi:docname="AJAX.svg">
  <metadata
     id="metadata124">
    <rdf:RDF>
      <cc:Work
         rdf:about="">
        <dc:format>image/svg+xml</dc:format>
        <dc:type
           rdf:resource="http://purl.org/dc/dcmitype/StillImage" />
      </cc:Work>
    </rdf:RDF>
  </metadata>
  <defs
     id="defs122" />
  <sodipodi:namedview
     pagecolor="#ffffff"
     bordercolor="#666666"
     borderopacity="1"
     objecttolerance="10"
     gridtolerance="10"
     guidetolerance="10"
     inkscape:pageopacity="0"
     inkscape:pageshadow="2"
     inkscape:window-width="1280"
     inkscape:window-height="1004"
     id="namedview120"
     showgrid="false"
     fit-margin-top="0"
     fit-margin-left="0"
     fit-margin-right="0"
     fit-margin-bottom="0"
     inkscape:zoom="0.74770463"
     inkscape:cx="676.48134"
     inkscape:cy="453.16814"
     inkscape:window-x="-8"
     inkscape:window-y="-8"
     inkscape:window-maximized="1"
     inkscape:current-layer="svg2" />
  <g
     id="#ffffffff"
     transform="translate(-12.634238,-36.049511)">
    <path
       d="m 372.57,47.7 c 8.02,-5.84 19.84,-6.07 27.89,-0.15 4.43,3.2 7.85,7.59 10.76,12.18 17.37,27.94 34.77,55.88 52.14,83.82 2.91,4.62 6.63,8.65 10.3,12.66 -10.77,11.83 -18.84,26.01 -23.96,41.16 -6.43,-7.17 -10.98,-15.78 -16.04,-23.91 -1.5,-19.75 -3.93,-39.65 -10.27,-58.53 -4.6,-13.93 -10.95,-27.56 -20.57,-38.76 -1.88,-2.29 -4.17,-4.18 -6.56,-5.89 -7.75,6.09 -13.15,14.55 -17.82,23.1 -7.15,13.66 -11.74,28.54 -14.7,43.62 -0.35,1.82 -1.27,3.43 -2.07,5.07 -3.16,-2.01 -6.08,-4.42 -9.46,-6.07 -9.07,-4.51 -18.12,-9.06 -27.18,-13.57 10.83,-18.55 22.01,-36.89 32.95,-55.37 4.21,-6.88 7.92,-14.47 14.59,-19.36 z"
       id="path7"
       inkscape:connector-curvature="0"
       style="fill:#ffffff" />
    <path
       d="m 372.65,130.13 c 4.46,-18 11.34,-35.97 23.64,-50.14 6.9,7.16 11.62,16.09 15.65,25.11 10.22,23.94 13.79,50.17 14.56,76.02 0.07,30.65 0,61.3 0.04,91.95 -7.59,-7.49 -16.66,-13.31 -26.34,-17.7 -0.06,-43.88 -0.02,-87.77 -0.02,-131.65 -2.44,-0.02 -4.87,-0.03 -7.31,-0.03 0,42.8 0,85.61 0.01,128.41 -8.72,-3.67 -17.66,-6.78 -26.65,-9.68 0.09,-18.82 -0.02,-37.63 0.05,-56.45 0.09,-18.76 1.99,-37.58 6.37,-55.84 z"
       id="path9"
       inkscape:connector-curvature="0"
       style="fill:#ffffff" />
    <path
       d="m 309.2,149.16 c 4.26,-7.91 9.17,-15.44 13.54,-23.28 -0.46,5.27 -0.86,10.55 -1,15.85 1.35,14.78 5.77,29.4 13.16,42.35 0.47,1 1.51,2.13 0.63,3.25 -5.06,9.26 -9.79,19.12 -17.98,26.1 -8.09,6.8 -17.92,11.83 -28.46,13.33 -4.33,0.7 -8.72,0.93 -13.1,0.95 -32.32,-0.01 -64.63,-0.01 -96.94,-0.01 -3.4,0.07 -7.25,0.93 -9.43,3.78 -2.07,2.78 -1.28,6.61 0.49,9.34 17.03,28.24 34.07,56.49 51.12,84.73 4.81,7.92 9.68,16.1 11.46,25.32 2.47,13.09 0.57,27.12 -6.13,38.72 -15.19,26.72 -30.6,53.32 -45.87,80 -1.71,2.93 -2.3,6.97 -0.11,9.81 1.96,2.48 5.34,3.14 8.35,3.14 26.67,-0.02 53.34,0 80,-0.01 5.67,0 11.38,-0.02 16.98,0.97 8.28,1.28 15.85,5.11 23.14,9.05 7.18,3.97 14.25,8.43 19.86,14.51 5.71,6.18 9.9,13.53 14.48,20.54 6.18,9.77 12.66,19.37 18.63,29.27 -4.77,3.03 -9.48,6.13 -14.24,9.16 4.44,9.93 8.81,19.9 13.24,29.83 0.83,1.57 0.69,3.35 0.78,5.08 -7.41,3.34 -11.53,12.08 -9.41,19.92 -11.11,-19.25 -22.82,-38.16 -34.03,-57.36 -3.93,-6.78 -8.08,-13.6 -13.85,-19.01 -10.6,-10.02 -25,-15.52 -39.54,-15.79 -26,-0.23 -52.01,-0.03 -78.02,-0.09 -15.65,-0.2 -31.69,1.23 -46.86,-3.58 -6.82,-2.21 -14.43,-5.44 -17.46,-12.47 -5.03,-10.84 -2.28,-23.62 3.25,-33.72 15.35,-26.63 30.75,-53.21 46.11,-79.82 4.87,-8.21 8.87,-16.98 11.4,-26.19 1.9,-6.76 2.1,-14 0.3,-20.8 -3.03,-12.53 -9.5,-23.79 -15.87,-34.86 -16.82,-29.76 -33.63,-59.52 -50.43,-89.29 -3.29,-6.13 -6.82,-12.73 -6.2,-19.93 1.02,-8.45 6.76,-16.46 14.87,-19.41 3.48,-1.28 7.19,-1.9 10.9,-1.88 37.68,0.03 75.36,0 113.04,0.02 6.03,-0.06 12.11,-0.56 17.91,-2.27 9.19,-2.6 17.38,-7.85 24.78,-13.76 7.15,-5.73 12.19,-13.53 16.51,-21.49 z"
       id="path11"
       inkscape:connector-curvature="0"
       style="fill:#ffffff" />
    <path
       d="m 329.27,132.68 c 6.07,2.91 12,6.1 18.07,9.02 5.13,2.41 9.5,6.06 14.04,9.38 -1.01,7.71 -1.64,15.46 -2.04,23.22 -9.19,-11.82 -19.49,-22.72 -30.15,-33.22 0.02,-2.8 0.01,-5.6 0.08,-8.4 z"
       id="path13"
       inkscape:connector-curvature="0"
       style="fill:#ffffff" />
    <path
       d="m 330.62,152.85 c 7.05,7.12 13.84,14.52 20.1,22.35 3.21,4.22 6.7,8.52 8.13,13.72 0.64,5.62 -0.18,11.28 -0.37,16.92 -5.09,-7.06 -9.97,-14.27 -14.92,-21.42 -6.18,-9.63 -10.31,-20.47 -12.94,-31.57 z"
       id="path15"
       inkscape:connector-curvature="0"
       style="fill:#ffffff" />
    <path
       d="m 455.45,203.11 c 5.11,-16.28 13.45,-31.82 25.61,-43.93 0.76,2.32 1.91,4.56 2.21,7.01 -1.87,1.8 -5.08,-0.11 -7.45,0.08 -1.5,13.58 -3.3,27.13 -5.11,40.67 -2.01,13.45 -3.49,27.23 -8.83,39.87 -4.12,9.12 -8.93,17.91 -13.22,26.95 -3.41,-6.24 -9.09,-10.63 -14.49,-15.02 -0.79,-2.97 -0.1,-6.3 -0.39,-9.4 3.37,4.47 6.53,9.09 9.77,13.64 2.14,-0.69 4.25,-1.47 6.36,-2.23 -1.26,-19.33 -0.37,-39.06 5.54,-57.64 z"
       id="path17"
       inkscape:connector-curvature="0"
       style="fill:#ffffff" />
    <path
       d="m 482.54,171.08 c 0.06,-0.58 0.18,-4.08 1.61,-2.58 5.18,18.05 5.38,37.48 0.94,55.7 -6.24,16.49 -13.67,32.67 -23.49,47.36 -2.28,3.81 -6.26,6.8 -6.89,11.43 -0.51,5.4 0.8,10.75 2.19,15.94 2.63,9.34 5.98,18.47 9.9,27.35 3.58,-0.23 7.46,1.27 8.96,4.74 0.68,3.12 -3.49,3.96 -5.53,5.24 -0.04,-0.71 -0.11,-2.13 -0.15,-2.84 -11.58,-1.37 -21,-8.67 -30.08,-15.36 -16.15,-10.53 -30.87,-23.04 -45.14,-35.96 -9.26,-8.32 -18.17,-17.06 -26.19,-26.59 -1.72,-2.12 -3.32,-4.41 -5.68,-5.88 -1.49,1.17 -3.03,2.27 -4.62,3.29 -1.03,-2.06 -2,-4.13 -2.99,-6.21 2.69,0.84 5.42,1.58 8,2.71 0.59,-0.1 1.78,-0.28 2.37,-0.38 l -0.87,0.72 c 8.11,2.35 16.03,5.3 23.85,8.48 10.4,4.32 20.77,9.28 29.25,16.85 14.45,12.83 26.18,28.45 36.26,44.87 3.05,0.47 6.77,-1.32 6.17,-4.92 -2.18,-10.96 -7.85,-20.96 -9.93,-31.96 -0.27,-3.03 -0.68,-6.06 -1.66,-8.94 2.04,1.05 4.11,2.09 6.18,3.11 4.16,-8.23 8.14,-16.55 12.29,-24.79 5.63,-11.69 7.63,-24.66 9.58,-37.36 2.04,-14.66 4,-29.32 5.67,-44.02 z"
       id="path19"
       inkscape:connector-curvature="0"
       style="fill:#ffffff" />
    <path
       d="m 492.31,170.79 c 10.95,4.71 22.79,7.16 34.62,8.34 40.69,0.08 81.39,-0.01 122.08,0.05 7.44,-0.1 15.42,1.54 20.94,6.89 5.34,5.16 9.01,12.41 8.88,19.95 -0.12,5.89 -2.53,11.45 -5.53,16.43 -18.2,30.44 -36.34,60.92 -54.58,91.34 -9.87,13.42 -14.18,31.01 -10.83,47.4 3.49,13.96 11.73,25.97 18.85,38.25 12.61,21.36 25.24,42.7 37.85,64.05 5.11,8.58 10.73,17.4 11.68,27.59 0.84,9.06 -3.27,19.3 -11.85,23.31 -7.86,3.97 -16.71,5.62 -25.43,6.23 -27.33,0.08 -54.66,0.01 -82,0.04 -15.73,-0.47 -31.95,-0.4 -46.94,5.01 -6.75,2.34 -12.46,6.86 -17.36,11.95 -6.81,7.4 -12.99,15.46 -17.72,24.36 -10.41,18.81 -20.98,37.54 -31.29,56.41 0.5,-7.17 -3.33,-14.24 -9.82,-17.41 -0.02,-14.01 0,-28.02 -0.01,-42.03 -0.2,-1.69 0.74,-3.13 1.52,-4.52 5.53,-9.46 10.97,-18.98 16.48,-28.45 4.33,-7.51 8.54,-15.21 14.43,-21.64 6.29,-6.94 14.2,-12.15 22.25,-16.8 7.73,-4.47 16.49,-7.35 25.47,-7.4 17,-0.03 34,0.01 51,-0.01 13.31,0.02 26.63,-0.01 39.95,0.01 4.38,-0.13 9.21,-0.49 12.61,-3.59 4.5,-4.03 3.99,-11.3 1.1,-16.12 -11.31,-17.12 -22.68,-34.2 -34.02,-51.3 -7.38,-11.49 -16.05,-22.51 -20.23,-35.69 -3.16,-10.26 -3.67,-21.2 -2.58,-31.83 1.98,-15.87 11.04,-29.44 18.69,-43.06 11.8,-20.55 23.6,-41.09 35.4,-61.64 2.09,-3.7 3.55,-8.5 1.43,-12.49 -1.74,-3.41 -5.76,-4.8 -9.37,-4.73 -16.68,0 -33.36,0 -50.03,0 -21.46,-0.2 -42.94,0.43 -64.39,-0.36 2.8,-16.05 2.5,-32.67 -1.25,-48.54 z"
       id="path21"
       inkscape:connector-curvature="0"
       style="fill:#ffffff" />
    <path
       d="m 492.58,315.44 c 7.81,-22.09 18.88,-43.5 35.39,-60.37 -7.35,38.6 -20.64,75.94 -37.53,111.36 -1.41,2.86 -3,5.63 -4.79,8.28 0.45,0.78 0.88,1.59 1.28,2.43 -1.34,0.56 -2.67,1.12 -4,1.67 1.7,2.19 4.99,3.75 7.25,1.38 4.35,-4.4 6.56,-10.37 9.32,-15.79 14.04,-30.77 25.89,-62.71 32.93,-95.85 1.3,18.56 -0.02,37.32 -3.69,55.56 -3.72,17.95 -10.27,35.64 -21.37,50.39 -7.65,10.23 -17.64,18.69 -29,24.53 2.08,22.59 -3.45,45.32 -12.44,65.94 2.15,1.08 4.28,2.21 6.5,3.14 8.71,-15.46 18.18,-30.55 29.02,-44.62 8.87,-11.92 21.36,-20.54 34.3,-27.53 -3.57,8.74 -7.59,17.3 -12.1,25.59 -4.14,7.3 -8.59,14.6 -14.77,20.37 -12.92,12.17 -26.9,23.12 -40.92,33.97 1.47,1.88 2.9,3.78 4.32,5.72 15.68,-11.95 31.36,-24.09 45.22,-38.15 12.36,-14.47 19.66,-32.33 27.08,-49.64 -0.7,-0.24 -2.11,-0.73 -2.81,-0.97 1.28,-0.7 2.58,-1.39 3.88,-2.06 -3.93,19.94 -11.08,39.52 -22.51,56.42 -8.73,13.11 -21.12,23.31 -34.31,31.68 -11.57,7.04 -24.52,12.79 -38.24,13.3 -8.23,19.29 -19.64,37.18 -33.29,53.09 -15.32,16.84 -32.03,32.54 -50.37,46.06 -3.32,-7.51 -6.6,-15.04 -9.98,-22.52 12.04,-7.86 24.15,-15.6 36.2,-23.43 3.22,-2.15 6.78,-3.92 9.36,-6.89 13.22,-13.8 26.82,-27.31 39.03,-42.03 8.96,-13.11 16.36,-27.35 21.8,-42.28 4.1,-11.81 7.4,-24.35 5.97,-36.95 -4.45,-0.36 -9.4,-0.03 -13.11,-2.97 1.43,-6.92 9.09,-8.18 14.21,-11.42 -12.16,-2.43 -24.3,-4.94 -36.46,-7.33 -10.34,-1.68 -19.89,-6.31 -29.06,-11.17 -12.9,-7.19 -24.75,-16.56 -33.75,-28.35 -3.92,-5.17 -7.9,-10.31 -11.27,-15.86 6.85,7.27 14.25,14.39 23.39,18.7 26.75,13.16 52.96,27.5 80.65,38.63 0.45,-1.31 0.9,-2.62 1.35,-3.92 1.52,1.71 2.92,3.52 4.38,5.28 -0.26,-11.31 0.86,-22.76 -1.44,-33.94 -1.67,-8.81 -2.8,-17.95 -6.92,-26.04 2.46,0.68 4.96,1.22 7.47,1.7 1,11.68 2.29,23.34 3.41,35.02 2.4,-0.06 4.79,-0.2 7.19,-0.35 1.97,-20.36 6.57,-40.45 13.23,-59.78 z"
       id="path29"
       inkscape:connector-curvature="0"
       style="fill:#ffffff" />
    <path
       d="m 360.08,256.81 c 9.18,10.8 19.11,20.96 29.62,30.47 13.44,12 27.03,23.97 42.08,33.96 5.82,3.83 11.28,8.15 17.05,12.05 -4.07,-1.25 -8.16,-2.45 -12.26,-3.59 -17.3,-3.91 -32.99,-13.42 -45.84,-25.48 -13.17,-13.65 -22.1,-30.66 -30.65,-47.41 z"
       id="path31"
       inkscape:connector-curvature="0"
       style="fill:#ffffff" />
    <path
       d="m 366.31,283.44 c 7.21,11.99 15.42,23.75 26.6,32.38 -0.06,3.71 -0.02,7.43 -0.05,11.15 -8.5,-3.57 -17.63,-4.96 -26.59,-6.81 0.01,-12.24 -0.06,-24.48 0.04,-36.72 z"
       id="path35"
       inkscape:connector-curvature="0"
       style="fill:#ffffff" />
    <path
       d="m 400.16,321.15 c 8.14,5.64 17.02,10.19 26.39,13.4 -0.03,3.54 -0.02,7.08 -0.03,10.63 -8.44,-5.59 -17.23,-10.64 -26.37,-14.98 0.03,-3.02 0.02,-6.04 0.01,-9.05 z"
       id="path37"
       inkscape:connector-curvature="0"
       style="fill:#ffffff" />
    <path
       d="m 356.78,325.54 c 6.46,1.3 12.89,2.72 19.34,4.04 12.17,2.24 23.26,8.12 34,14.04 20.27,11.17 37.51,27.22 51.89,45.24 -26.95,-11.41 -52.73,-25.3 -78.91,-38.3 -10.34,-6.44 -18.68,-15.65 -26.32,-25.02 z"
       id="path39"
       inkscape:connector-curvature="0"
       style="fill:#ffffff" />
    <path
       d="m 366.27,361.74 c 7.63,9.17 16.51,17.34 26.57,23.8 0.1,23.28 -0.03,46.57 0.06,69.85 -8.87,-1.05 -17.79,-1.55 -26.65,-2.71 0.03,-30.31 -0.01,-60.63 0.02,-90.94 z"
       id="path45"
       inkscape:connector-curvature="0"
       style="fill:#ffffff" />
    <path
       d="m 400.14,455.38 c 0.09,-21.78 -0.01,-43.56 0.05,-65.34 8.35,4.73 17.18,8.62 26.35,11.47 -0.03,17.05 -0.03,34.1 0.01,51.15 -8.78,1.19 -17.63,1.66 -26.41,2.72 z"
       id="path47"
       inkscape:connector-curvature="0"
       style="fill:#ffffff" />
    <path
       d="m 744.11,451.42 c 10.32,3.52 20.7,7.04 30.43,12.01 2.46,1.36 5.36,2.83 6.22,5.74 1.32,3.52 -0.53,7.12 -1.65,10.42 -7.25,1.8 -14.76,1.26 -22.14,1.33 -25.15,-0.01 -50.3,0.02 -75.44,-0.01 -0.9,-2.52 -1.91,-4.98 -3,-7.4 30.54,-0.05 61.08,0.03 91.62,-0.04 -0.02,-2.38 -0.02,-4.76 -0.04,-7.13 -8.67,-0.02 -17.33,-0.02 -25.99,-0.01 0,-4.97 0.01,-9.94 -0.01,-14.91 z"
       id="path51"
       inkscape:connector-curvature="0"
       style="fill:#ffffff" />
    <path
       d="m 341.85,469.69 c 6.98,-3.5 14.12,-6.74 21.33,-9.73 12.53,1.51 25.12,3.3 37.78,2.76 9.51,-0.4 19.02,-1.32 28.4,-2.96 6.7,2.78 13.19,6.04 19.88,8.86 -0.53,0.98 -0.85,2.24 -2.02,2.68 -5.73,2.79 -11.66,5.21 -17.38,8.03 -10.9,-1.66 -21.9,-2.83 -32.92,-3.07 -11.06,0.11 -22.08,1.36 -33.02,2.91 -1.39,0.14 -2.57,-0.76 -3.82,-1.21 -6.05,-2.82 -12.12,-5.58 -18.23,-8.27 z"
       id="path53"
       inkscape:connector-curvature="0"
       style="fill:#ffffff" />
    <path
       d="m 23.58,475.49 c 8.91,-6.89 20.93,-5.64 30.89,-10.1 -0.03,4.58 -0.01,9.16 -0.03,13.74 -7,-0.03 -13.99,0 -20.99,-0.02 0,2.38 0,4.78 0,7.17 27.15,0 54.3,-0.03 81.45,0.02 -0.59,2.27 -1.16,4.55 -1.79,6.83 -26.7,0.03 -53.41,0.01 -80.11,0.01 -3.6,-0.25 -7.65,-0.31 -10.5,-2.87 -3.78,-4.11 -3.63,-11.38 1.08,-14.78 z"
       id="path55"
       inkscape:connector-curvature="0"
       style="fill:#ffffff" />
    <path
       d="m 368.82,485.79 c 11.32,-1.45 22.75,-2.8 34.18,-2.12 7.92,0.55 15.84,1.32 23.71,2.46 -0.05,5.45 0.35,10.97 -0.16,16.39 -7.76,8.89 -16.19,17.17 -24.27,25.77 -2.89,2.75 -5.31,6.07 -8.73,8.21 -8.26,5.31 -16.51,10.63 -24.75,15.98 0.07,-22.23 0.03,-44.46 0.02,-66.69 z"
       id="path59"
       inkscape:connector-curvature="0"
       style="fill:#ffffff" />
    <path
       d="m 683.04,488.27 c 28.66,-0.14 57.33,-0.01 85.99,-0.06 2.31,-0.04 4.58,-0.44 6.89,-0.67 -7.52,22.73 -14.67,45.59 -22.23,68.3 -6.91,0.72 -14.01,0.07 -20.99,0.32 -16.12,-21.2 -32.03,-42.56 -48.1,-63.79 -1.03,-1.14 -1.26,-2.66 -1.56,-4.1 z"
       id="path61"
       inkscape:connector-curvature="0"
       style="fill:#ffffff" />
    <path
       d="m 27.2,500.08 c 27.23,0.67 54.49,0.05 81.72,0.32 -12.46,22.59 -24.87,45.22 -37.17,67.9 -6.38,0.04 -12.76,0.01 -19.14,0.02 C 44.13,545.58 35.76,522.79 27.2,500.08 z"
       id="path65"
       inkscape:connector-curvature="0"
       style="fill:#ffffff" />
    <path
       d="m 682.98,502.17 c 21.12,28.31 42.45,56.46 63.67,84.69 -24.12,29.66 -51.25,56.95 -81.57,80.27 -31.74,24.51 -66.84,44.72 -104.16,59.43 -68.15,27.04 -143.17,34.9 -215.77,26.29 C 299.79,747.63 255.2,735.07 214.14,715.01 156.47,686.96 106.55,644.95 64.01,597.35 c 16.37,-29.72 32.63,-59.5 48.92,-89.27 1.27,5.93 3.36,11.9 7.49,16.46 7.66,8.05 16.19,15.19 23.93,23.15 13.98,14.03 28.64,27.38 43.8,40.11 15.83,13.15 32.24,25.73 50.01,36.16 15.06,8.91 31.54,15.09 48.17,20.38 27.35,8.53 55.37,14.78 83.61,19.55 5.52,7.19 12.93,13.68 22.08,15.43 8.27,1.11 17.07,-0.26 24.11,-4.92 4.88,-3.24 8.35,-8.06 11.7,-12.75 23.36,-2.05 46.31,-7.5 68.67,-14.41 36.15,-11.64 71.57,-27.45 101.36,-51.36 27.75,-22.02 52.96,-47.07 76.71,-73.3 4.39,-5.96 6.75,-13.25 8.41,-20.41 m -7.46,50.17 c 5.47,4.43 10.94,8.86 16.42,13.28 -8.34,-0.74 -16.65,-1.83 -25.01,-2.38 -3.31,3.34 -6.04,7.25 -8.98,10.93 11.63,0.9 23.24,2.11 34.84,3.25 -4.01,5.02 -8.24,9.88 -12.06,15.05 3.02,2.34 5.96,4.8 9.01,7.14 6.95,-8.66 13.99,-17.26 20.96,-25.91 1.47,-1.92 3.29,-3.62 4.34,-5.83 -7.14,-0.83 -14.32,-1.36 -21.44,-2.29 2.3,-2.66 4.51,-5.41 6.61,-8.23 -5.84,-4.63 -11.64,-9.31 -17.35,-14.09 -2.44,3.03 -4.92,6.04 -7.34,9.08 m -570.65,7.62 c 5.86,7.26 11.78,14.48 17.62,21.77 -2.78,2.24 -5.57,4.46 -8.32,6.75 -8.04,-0.27 -16.09,-0.24 -24.13,-0.58 3.11,4 6.28,7.97 9.57,11.84 5.79,-0.23 11.57,0.18 17.36,0.09 1.7,0.25 2.87,-1.05 4.08,-1.98 5.9,-4.87 11.91,-9.6 17.79,-14.5 -6,-7.11 -11.66,-14.52 -17.7,-21.6 1.29,-1.08 2.59,-2.13 3.9,-3.16 -2.3,-3.12 -4.79,-6.09 -7.21,-9.11 -4.33,3.47 -8.63,6.99 -12.96,10.48 m 517.63,51.51 c 2.81,2.63 5.52,5.37 8.36,7.98 6.49,-6.7 13,-13.37 19.49,-20.06 4.17,4.11 8.49,8.08 12.56,12.29 -6.44,6.69 -12.96,13.31 -19.36,20.03 2.77,2.71 5.57,5.39 8.35,8.1 10.15,-10.71 20.49,-21.25 30.76,-31.85 -2.86,-2.66 -5.6,-5.44 -8.54,-8.01 -1.05,1.09 -2.1,2.17 -3.13,3.27 -6.91,-6.83 -14.01,-13.47 -20.98,-20.24 -9.23,9.44 -18.29,19.04 -27.51,28.49 M 143.09,587.81 c -1.18,5.88 -2.34,11.76 -3.6,17.62 -4.21,-0.49 -8.43,-1 -12.66,-1.31 -4.18,4.1 -8.33,8.23 -12.66,12.16 2.68,2.79 5.36,5.57 7.97,8.43 2.97,-2.65 5.75,-5.51 8.64,-8.23 2.07,0.2 4.14,0.39 6.21,0.63 -1.14,6.36 -2.6,12.66 -3.82,19.02 3.29,3.19 6.37,6.59 9.66,9.78 1.33,-5.68 2.43,-11.41 3.71,-17.11 4.15,0.47 8.31,0.86 12.49,1 4.68,-3.6 8.78,-8.07 13.02,-12.24 -2.67,-2.79 -5.38,-5.54 -8.01,-8.35 -2.86,2.91 -5.88,5.67 -8.76,8.57 -2.11,-0.25 -4.23,-0.45 -6.34,-0.61 1.31,-6.46 2.62,-12.9 3.94,-19.35 -3.21,-3.39 -6.37,-6.83 -9.79,-10.01 m 462.51,35.06 c 2.44,3.11 4.76,6.31 7.25,9.39 -0.37,2.18 -0.81,4.35 -1.28,6.52 -6.21,-2.22 -12.52,-4.15 -18.73,-6.35 -3.52,2.72 -7.21,5.22 -10.61,8.08 0,0.16 -0.01,0.46 -0.02,0.61 5.5,1.85 11.02,3.66 16.53,5.48 -0.97,4.1 -1.83,8.22 -2.87,12.31 3.51,4.74 7.07,9.43 10.63,14.14 3.2,-2.18 6.25,-4.58 9.35,-6.91 -2.47,-3.17 -4.92,-6.35 -7.17,-9.68 0.56,-1.94 0.97,-3.93 1.4,-5.9 6.11,2.04 12.22,4.1 18.34,6.13 3.63,-2.84 7.47,-5.44 10.93,-8.5 -5.48,-1.78 -10.88,-3.77 -16.36,-5.52 0.72,-4.28 1.67,-8.51 2.56,-12.74 -3.59,-4.68 -7.14,-9.38 -10.64,-14.12 -3.13,2.32 -6.26,4.64 -9.31,7.06 m -431.27,7.24 c 6.71,5.02 13.37,10.11 20.1,15.1 -5.82,7.82 -11.76,15.55 -17.54,23.39 3.08,2.29 6.16,4.58 9.19,6.94 8.27,-10.81 16.38,-21.75 24.64,-32.57 -9.89,-7.29 -19.52,-14.92 -29.53,-22.04 -2.21,3.11 -4.5,6.17 -6.86,9.18 m 43.71,16.29 c -6.13,12.15 -12.38,24.23 -18.49,36.4 10.76,5.4 21.48,10.87 32.18,16.39 1.35,0.56 2.86,1.74 4.37,0.82 4.5,-1.62 9.14,-2.82 13.58,-4.6 4.58,-8.64 8.99,-17.4 13.35,-26.16 -3.47,-1.62 -6.85,-3.39 -10.21,-5.2 -4.03,7.41 -7.58,15.08 -11.62,22.48 -2.35,2.49 -6.09,1.89 -8.75,0.18 4.36,-8.75 8.76,-17.48 13.33,-26.12 -3.4,-1.83 -6.89,-3.51 -10.28,-5.38 -4.61,8.6 -8.83,17.39 -13.37,26.02 -2.29,-1.2 -4.61,-2.35 -6.95,-3.43 4.29,-8.75 8.69,-17.46 13.29,-26.05 -3.46,-1.81 -6.97,-3.53 -10.43,-5.35 m 299.94,26.34 c 1.63,3.48 3.18,7.02 4.75,10.54 8.38,-3.78 16.79,-7.52 25.2,-11.24 3.91,8.92 7.92,17.79 11.87,26.69 3.53,-1.61 7.07,-3.23 10.65,-4.74 -5.52,-12.42 -11.09,-24.8 -16.55,-37.24 -12.01,5.24 -23.99,10.57 -35.92,15.99 m -250.87,16.43 c 3.7,1.01 7.39,2.05 11.05,3.19 1.59,-5.77 3.58,-11.45 4.77,-17.32 -3.69,-0.89 -7.32,-2 -10.97,-3.01 -1.57,5.72 -3.3,11.41 -4.85,17.14 m 24.05,-16.76 c -1.27,5.34 -2.87,10.6 -4.51,15.84 8.99,2.57 17.96,5.25 26.99,7.69 -1.12,3.45 -1.6,7.17 -3.22,10.43 -6.45,4.65 -13.37,8.64 -19.72,13.44 4.78,1.32 9.54,2.71 14.3,4.11 5.17,-3.42 10.35,-6.84 15.39,-10.43 3.01,-8.31 5.1,-17 7.52,-25.52 -8.99,-2.36 -17.87,-5.12 -26.83,-7.6 0.43,-1.61 0.89,-3.21 1.36,-4.8 -3.73,-1.17 -7.47,-2.31 -11.28,-3.16 m 179.51,13.38 c 0.8,3.73 1.64,7.46 2.55,11.18 9.01,-1.8 17.91,-4.13 26.9,-6.08 2.19,9.5 4.34,19.01 6.61,28.5 3.68,-1.02 7.42,-1.8 11.16,-2.61 -2.67,-13.29 -6.22,-26.39 -8.89,-39.68 -12.84,2.59 -25.55,5.84 -38.33,8.69 m 55.82,6.07 c 2.8,5.97 5.36,12.06 8.11,18.06 3.55,-1.57 7.07,-3.17 10.61,-4.77 -2.79,-5.97 -5.39,-12.03 -8.08,-18.04 -3.54,1.6 -7.08,3.19 -10.64,4.75 m -91,-1.38 c 0.16,3.81 0.65,7.6 0.98,11.41 2.57,-0.18 5.15,-0.37 7.74,-0.59 1.35,4.23 2.85,8.41 4.05,12.7 -3.54,0.23 -7.06,0.57 -10.59,0.79 -0.69,5.53 -1.14,11.09 -1.95,16.61 4,-0.47 8.01,-0.77 12.02,-1.17 0.66,-4.72 0.8,-9.49 1.34,-14.22 1.8,4.47 3.35,9.03 4.93,13.59 4.03,-0.12 8.06,-0.51 12.07,-1.01 -4.75,-13.14 -9.43,-26.31 -14.04,-39.5 -5.52,0.35 -11.04,0.81 -16.55,1.39 m -25.76,2.28 c 0.28,3.9 0.7,7.79 0.95,11.7 2.19,-0.2 4.39,-0.44 6.58,-0.72 0.42,5.89 1.11,11.76 1.54,17.65 -2.16,0.14 -4.33,0.26 -6.49,0.42 0.24,3.91 0.42,7.83 1.02,11.71 6.03,-0.77 12.11,-1 18.14,-1.8 -1.5,-13.45 -2.28,-26.97 -3.72,-40.43 -6.02,0.4 -12,1.13 -18.02,1.47 m -48.86,-1.61 c -0.3,3.79 -0.41,7.61 -1.02,11.38 9.19,0.83 18.37,1.8 27.58,2.36 -0.88,9.61 -1.48,19.26 -2.73,28.82 3.83,0.96 7.81,0.92 11.73,1.3 1.25,-13.49 2.47,-26.98 3.51,-40.48 -13.02,-1.18 -26.03,-2.4 -39.07,-3.38 m 114.53,15 c 1.34,6.5 2.94,12.94 4.42,19.41 3.69,-0.91 7.38,-1.86 11.14,-2.53 -1.25,-6.52 -2.81,-12.97 -4.45,-19.4 -3.68,0.94 -7.39,1.78 -11.11,2.52 m -116.16,5.9 c -0.85,6.49 -1.15,13.04 -1.83,19.55 3.83,0.45 7.68,0.74 11.52,1.06 0.47,-6.62 1.34,-13.2 1.64,-19.82 -3.79,-0.12 -7.56,-0.48 -11.33,-0.79 z"
       id="path67"
       inkscape:connector-curvature="0"
       style="fill:#ffffff" />
    <path
       d="m 634.94,527.84 c 10.27,0.26 20.52,-1.88 30.08,-5.6 -11.69,12.95 -24.04,25.3 -36.63,37.36 -12,-10.62 -24.09,-21.14 -36.05,-31.8 14.2,0.08 28.4,0 42.6,0.04 z"
       id="path69"
       inkscape:connector-curvature="0"
       style="fill:#ffffff" />
    <path
       d="m 138.86,532.19 c 8.81,2.47 17.97,3.71 27.12,3.64 12.85,-0.02 25.71,-0.01 38.56,-0.01 -10.59,9.62 -21.21,19.21 -31.71,28.93 -11.77,-10.38 -22.63,-21.71 -33.97,-32.56 z"
       id="path73"
       inkscape:connector-curvature="0"
       style="fill:#ffffff" />
    <path
       d="m 368.38,599.48 c 21.29,-15.82 41.04,-33.83 58.36,-53.94 0.07,18.01 -0.03,36.03 0.05,54.05 -19.47,-0.05 -38.95,0.16 -58.41,-0.11 z"
       id="path77"
       inkscape:connector-curvature="0"
       style="fill:#ffffff" />
    <path
       d="m 366.2,607.2 c 1.55,-0.43 3.18,-0.43 4.78,-0.43 18.33,0.04 36.66,0 54.98,0.02 4.13,-0.16 8.43,2.22 9.75,6.27 2.52,5.68 -2.47,12.92 -8.66,12.6 -19.38,0.02 -38.76,-0.02 -58.13,0.01 -4.52,0.38 -8.88,-3.14 -9.59,-7.58 -1.08,-4.7 2.23,-9.78 6.87,-10.89 z"
       id="path79"
       inkscape:connector-curvature="0"
       style="fill:#ffffff" />
    <path
       d="m 356.92,628.34 c 2.83,2.42 6.27,4.46 10.11,4.47 20.33,0.04 40.65,0.02 60.98,0.01 3.61,0.11 6.9,-1.65 9.7,-3.76 -5.47,9.42 -10.35,19.19 -16.21,28.38 -4.34,6.51 -10.2,13.17 -18.36,14.41 -6.5,1.48 -13.58,-0.06 -18.91,-4.04 -5.19,-3.86 -8.96,-9.26 -12.37,-14.67 -5.05,-8.23 -9.83,-16.61 -14.94,-24.8 z"
       id="path81"
       inkscape:connector-curvature="0"
       style="fill:#ffffff" />
  </g>
  <g
     id="#010103ff"
     transform="translate(-12.634238,-36.049511)">
    <path
       d="m 377.12,37.41 c 8.16,-2.27 17.42,-1.87 24.84,2.5 6.81,3.76 11.73,10.05 15.79,16.54 13.93,22.38 27.83,44.77 41.78,67.14 6.04,9.49 11.29,19.62 19.38,27.61 1.48,-1.15 2.95,-2.3 4.44,-3.46 2.52,4.07 4.22,8.55 6.1,12.93 4.34,3.55 9.9,5.19 15.17,6.88 8.92,2.38 18.07,4.63 27.38,4.23 38.67,-0.02 77.35,0.01 116.02,-0.02 8.26,0.11 16.9,1.48 23.76,6.39 8.62,6.41 14.51,16.91 14.14,27.79 0.06,6.82 -2.29,13.44 -5.76,19.23 -18.49,30.87 -36.87,61.81 -55.38,92.66 -8.6,11.63 -12.66,26.78 -10.01,41.09 2.91,11.82 9.56,22.17 15.7,32.52 14.76,24.97 29.47,49.97 44.3,74.9 20.66,-0.04 41.31,-0.01 61.97,-0.01 -0.03,-8.27 0,-16.54 -0.01,-24.82 12.33,3.75 24.59,7.87 36.37,13.14 5.59,2.63 12.19,5.39 14.4,11.73 2.56,6.67 -0.58,13.55 -3.44,19.54 -8.41,25.78 -16.77,51.59 -25.05,77.42 -6.99,0.06 -13.98,-0.04 -20.97,0.06 5.97,7.82 11.88,15.7 17.78,23.58 -42.8,54.32 -96.57,100.56 -158.69,131.37 -62.04,31.15 -131.8,46.02 -201.09,44.97 -46.47,-0.45 -93.09,-7.3 -137.19,-22.2 -36.83,-12.29 -71.71,-30.18 -103.6,-52.27 -37.11,-25.61 -70.16,-56.7 -100.12,-90.31 4.16,-7.7 8.39,-15.36 12.63,-23.01 -6.72,0.01 -13.44,-0.04 -20.16,0.02 -9.67,-25.76 -19.19,-51.57 -28.79,-77.36 -0.94,-2.67 -3.23,-4.55 -4.4,-7.09 -2.87,-6.12 -2.4,-14.14 2.43,-19.15 5.67,-6.18 14.19,-8.44 22.16,-9.84 7.9,-1.18 15.26,-4.42 22.64,-7.3 0.05,8.1 -0.01,16.21 0.03,24.31 18.57,0.01 37.15,-0.04 55.72,0.03 13.72,-24.16 27.78,-48.13 41.63,-72.21 4.74,-8.4 10.02,-16.53 13.7,-25.48 3.28,-7.94 6.27,-16.58 4.52,-25.28 -1.83,-8.43 -5.28,-16.43 -9.31,-24.02 -19.02,-33.73 -38.12,-67.43 -57.13,-101.17 -3.75,-6.78 -7.15,-14.22 -6.99,-22.13 0.65,-10.57 6.92,-20.79 16.41,-25.66 4.58,-2.27 9.66,-3.68 14.79,-3.69 38,-0.01 76.01,0 114.01,-0.01 8.63,0.02 17.45,-1.22 25.16,-5.31 6.31,-3.42 12.42,-7.39 17.49,-12.5 6.89,-6.9 10.86,-15.94 15.79,-24.2 16.35,-27.36 32.66,-54.75 49.04,-82.09 4.75,-7.92 11.47,-15.36 20.62,-17.99 m -4.55,10.29 c -6.67,4.89 -10.38,12.48 -14.59,19.36 -10.94,18.48 -22.12,36.82 -32.95,55.37 9.06,4.51 18.11,9.06 27.18,13.57 3.38,1.65 6.3,4.06 9.46,6.07 0.8,-1.64 1.72,-3.25 2.07,-5.07 2.96,-15.08 7.55,-29.96 14.7,-43.62 4.67,-8.55 10.07,-17.01 17.82,-23.1 2.39,1.71 4.68,3.6 6.56,5.89 9.62,11.2 15.97,24.83 20.57,38.76 6.34,18.88 8.77,38.78 10.27,58.53 5.06,8.13 9.61,16.74 16.04,23.91 5.12,-15.15 13.19,-29.33 23.96,-41.16 -3.67,-4.01 -7.39,-8.04 -10.3,-12.66 -17.37,-27.94 -34.77,-55.88 -52.14,-83.82 -2.91,-4.59 -6.33,-8.98 -10.76,-12.18 -8.05,-5.92 -19.87,-5.69 -27.89,0.15 m 0.08,82.43 c -4.38,18.26 -6.28,37.08 -6.37,55.84 -0.07,18.82 0.04,37.63 -0.05,56.45 8.99,2.9 17.93,6.01 26.65,9.68 -0.01,-42.8 -0.01,-85.61 -0.01,-128.41 2.44,0 4.87,0.01 7.31,0.03 0,43.88 -0.04,87.77 0.02,131.65 9.68,4.39 18.75,10.21 26.34,17.7 -0.04,-30.65 0.03,-61.3 -0.04,-91.95 -0.77,-25.85 -4.34,-52.08 -14.56,-76.02 -4.03,-9.02 -8.75,-17.95 -15.65,-25.11 -12.3,14.17 -19.18,32.14 -23.64,50.14 m -63.45,19.03 c -4.32,7.96 -9.36,15.76 -16.51,21.49 -7.4,5.91 -15.59,11.16 -24.78,13.76 -5.8,1.71 -11.88,2.21 -17.91,2.27 -37.68,-0.02 -75.36,0.01 -113.04,-0.02 -3.71,-0.02 -7.42,0.6 -10.9,1.88 -8.11,2.95 -13.85,10.96 -14.87,19.41 -0.62,7.2 2.91,13.8 6.2,19.93 16.8,29.77 33.61,59.53 50.43,89.29 6.37,11.07 12.84,22.33 15.87,34.86 1.8,6.8 1.6,14.04 -0.3,20.8 -2.53,9.21 -6.53,17.98 -11.4,26.19 -15.36,26.61 -30.76,53.19 -46.11,79.82 -5.53,10.1 -8.28,22.88 -3.25,33.72 3.03,7.03 10.64,10.26 17.46,12.47 15.17,4.81 31.21,3.38 46.86,3.58 26.01,0.06 52.02,-0.14 78.02,0.09 14.54,0.27 28.94,5.77 39.54,15.79 5.77,5.41 9.92,12.23 13.85,19.01 11.21,19.2 22.92,38.11 34.03,57.36 -2.12,-7.84 2,-16.58 9.41,-19.92 -0.09,-1.73 0.05,-3.51 -0.78,-5.08 -4.43,-9.93 -8.8,-19.9 -13.24,-29.83 4.76,-3.03 9.47,-6.13 14.24,-9.16 -5.97,-9.9 -12.45,-19.5 -18.63,-29.27 -4.58,-7.01 -8.77,-14.36 -14.48,-20.54 -5.61,-6.08 -12.68,-10.54 -19.86,-14.51 -7.29,-3.94 -14.86,-7.77 -23.14,-9.05 -5.6,-0.99 -11.31,-0.97 -16.98,-0.97 -26.66,0.01 -53.33,-0.01 -80,0.01 -3.01,0 -6.39,-0.66 -8.35,-3.14 -2.19,-2.84 -1.6,-6.88 0.11,-9.81 15.27,-26.68 30.68,-53.28 45.87,-80 6.7,-11.6 8.6,-25.63 6.13,-38.72 -1.78,-9.22 -6.65,-17.4 -11.46,-25.32 -17.05,-28.24 -34.09,-56.49 -51.12,-84.73 -1.77,-2.73 -2.56,-6.56 -0.49,-9.34 2.18,-2.85 6.03,-3.71 9.43,-3.78 32.31,0 64.62,0 96.94,0.01 4.38,-0.02 8.77,-0.25 13.1,-0.95 10.54,-1.5 20.37,-6.53 28.46,-13.33 8.19,-6.98 12.92,-16.84 17.98,-26.1 0.88,-1.12 -0.16,-2.25 -0.63,-3.25 -7.39,-12.95 -11.81,-27.57 -13.16,-42.35 0.14,-5.3 0.54,-10.58 1,-15.85 -4.37,7.84 -9.28,15.37 -13.54,23.28 m 20.07,-16.48 c -0.07,2.8 -0.06,5.6 -0.08,8.4 10.66,10.5 20.96,21.4 30.15,33.22 0.4,-7.76 1.03,-15.51 2.04,-23.22 -4.54,-3.32 -8.91,-6.97 -14.04,-9.38 -6.07,-2.92 -12,-6.11 -18.07,-9.02 m 1.35,20.17 c 2.63,11.1 6.76,21.94 12.94,31.57 4.95,7.15 9.83,14.36 14.92,21.42 0.19,-5.64 1.01,-11.3 0.37,-16.92 -1.43,-5.2 -4.92,-9.5 -8.13,-13.72 -6.26,-7.83 -13.05,-15.23 -20.1,-22.35 m 124.83,50.26 c -5.91,18.58 -6.8,38.31 -5.54,57.64 -2.11,0.76 -4.22,1.54 -6.36,2.23 -3.24,-4.55 -6.4,-9.17 -9.77,-13.64 0.29,3.1 -0.4,6.43 0.39,9.4 5.4,4.39 11.08,8.78 14.49,15.02 4.29,-9.04 9.1,-17.83 13.22,-26.95 5.34,-12.64 6.82,-26.42 8.83,-39.87 1.81,-13.54 3.61,-27.09 5.11,-40.67 2.37,-0.19 5.58,1.72 7.45,-0.08 -0.3,-2.45 -1.45,-4.69 -2.21,-7.01 -12.16,12.11 -20.5,27.65 -25.61,43.93 m 27.09,-32.03 c -1.67,14.7 -3.63,29.36 -5.67,44.02 -1.95,12.7 -3.95,25.67 -9.58,37.36 -4.15,8.24 -8.13,16.56 -12.29,24.79 -2.07,-1.02 -4.14,-2.06 -6.18,-3.11 0.98,2.88 1.39,5.91 1.66,8.94 2.08,11 7.75,21 9.93,31.96 0.6,3.6 -3.12,5.39 -6.17,4.92 -10.08,-16.42 -21.81,-32.04 -36.26,-44.87 -8.48,-7.57 -18.85,-12.53 -29.25,-16.85 -7.82,-3.18 -15.74,-6.13 -23.85,-8.48 l 0.87,-0.72 c -0.59,0.1 -1.78,0.28 -2.37,0.38 -2.58,-1.13 -5.31,-1.87 -8,-2.71 0.99,2.08 1.96,4.15 2.99,6.21 1.59,-1.02 3.13,-2.12 4.62,-3.29 2.36,1.47 3.96,3.76 5.68,5.88 8.02,9.53 16.93,18.27 26.19,26.59 14.27,12.92 28.99,25.43 45.14,35.96 9.08,6.69 18.5,13.99 30.08,15.36 0.04,0.71 0.11,2.13 0.15,2.84 2.04,-1.28 6.21,-2.12 5.53,-5.24 -1.5,-3.47 -5.38,-4.97 -8.96,-4.74 -3.92,-8.88 -7.27,-18.01 -9.9,-27.35 -1.39,-5.19 -2.7,-10.54 -2.19,-15.94 0.63,-4.63 4.61,-7.62 6.89,-11.43 9.82,-14.69 17.25,-30.87 23.49,-47.36 4.44,-18.22 4.24,-37.65 -0.94,-55.7 -1.43,-1.5 -1.55,2 -1.61,2.58 m 9.77,-0.29 c 3.75,15.87 4.05,32.49 1.25,48.54 21.45,0.79 42.93,0.16 64.39,0.36 16.67,0 33.35,0 50.03,0 3.61,-0.07 7.63,1.32 9.37,4.73 2.12,3.99 0.66,8.79 -1.43,12.49 -11.8,20.55 -23.6,41.09 -35.4,61.64 -7.65,13.62 -16.71,27.19 -18.69,43.06 -1.09,10.63 -0.58,21.57 2.58,31.83 4.18,13.18 12.85,24.2 20.23,35.69 11.34,17.1 22.71,34.18 34.02,51.3 2.89,4.82 3.4,12.09 -1.1,16.12 -3.4,3.1 -8.23,3.46 -12.61,3.59 -13.32,-0.02 -26.64,0.01 -39.95,-0.01 -17,0.02 -34,-0.02 -51,0.01 -8.98,0.05 -17.74,2.93 -25.47,7.4 -8.05,4.65 -15.96,9.86 -22.25,16.8 -5.89,6.43 -10.1,14.13 -14.43,21.64 -5.51,9.47 -10.95,18.99 -16.48,28.45 -0.78,1.39 -1.72,2.83 -1.52,4.52 0.01,14.01 -0.01,28.02 0.01,42.03 6.49,3.17 10.32,10.24 9.82,17.41 10.31,-18.87 20.88,-37.6 31.29,-56.41 4.73,-8.9 10.91,-16.96 17.72,-24.36 4.9,-5.09 10.61,-9.61 17.36,-11.95 14.99,-5.41 31.21,-5.48 46.94,-5.01 27.34,-0.03 54.67,0.04 82,-0.04 8.72,-0.61 17.57,-2.26 25.43,-6.23 8.58,-4.01 12.69,-14.25 11.85,-23.31 -0.95,-10.19 -6.57,-19.01 -11.68,-27.59 -12.61,-21.35 -25.24,-42.69 -37.85,-64.05 -7.12,-12.28 -15.36,-24.29 -18.85,-38.25 -3.35,-16.39 0.96,-33.98 10.83,-47.4 18.24,-30.42 36.38,-60.9 54.58,-91.34 3,-4.98 5.41,-10.54 5.53,-16.43 0.13,-7.54 -3.54,-14.79 -8.88,-19.95 -5.52,-5.35 -13.5,-6.99 -20.94,-6.89 -40.69,-0.06 -81.39,0.03 -122.08,-0.05 -11.83,-1.18 -23.67,-3.63 -34.62,-8.34 m -58.62,16.71 c 0.08,15.86 0,31.72 0.04,47.59 -0.24,1.44 0.8,2.54 1.52,3.66 2.3,3.15 4.46,6.42 6.91,9.47 -0.12,-14.33 1.16,-28.75 5.03,-42.58 -5.25,-5.45 -9.54,-11.72 -13.5,-18.14 m -107,27.16 c -8.8,9.34 -20.51,16.01 -33.08,18.65 -9.41,2 -19.07,1.49 -28.61,1.55 -28.02,0 -56.04,0.02 -84.06,-0.01 -1.86,-0.02 -3.68,0.36 -5.48,0.73 16.25,27.01 32.57,53.99 48.84,81 4.86,8.11 10.2,16.08 13.34,25.08 3.76,10.32 3.85,21.63 2.26,32.39 -1.73,10.63 -7.33,20 -12.71,29.15 -12.65,22.03 -25.29,44.07 -37.95,66.09 -1.15,1.9 -2.26,3.83 -3,5.93 25.57,0.25 51.14,0.03 76.71,0.11 9.32,0.09 18.81,-0.49 27.93,1.8 8.71,2.04 16.72,6.19 24.43,10.6 6.44,3.67 12.65,7.89 17.81,13.25 6.98,6.95 11.72,15.68 17.12,23.82 3.86,5.85 7.42,11.89 11.45,17.62 0.09,-18.59 0.02,-37.18 0.03,-55.77 -12.5,-5.7 -25.06,-11.29 -37.5,-17.12 11.56,-5.27 23.11,-10.56 34.71,-15.75 0.29,-32.92 0.02,-65.86 0.13,-98.79 0.53,-4.37 -3.45,-7.21 -5.29,-10.74 -5.39,-8.91 -12.2,-18.22 -11.58,-29.16 5.63,1.09 11.23,2.36 16.86,3.51 -0.09,-15.92 0.19,-31.85 -0.14,-47.76 -5.54,-11.45 -11.25,-22.87 -15.81,-34.78 5.33,1.19 10.6,2.63 15.81,4.24 0.13,-7.41 0.39,-14.85 -0.08,-22.23 -6.52,-7.96 -12.3,-16.49 -18.11,-24.97 -4.21,7.46 -8.08,15.28 -14.03,21.56 m 135.84,67.92 c -1.2,1.56 -0.69,3.64 -0.55,5.44 1.61,10.87 5.68,21.17 9.73,31.32 3.98,1.08 7.42,3.49 9.87,6.8 9.63,-33.67 26.59,-66.84 55.06,-88.33 4.31,23.75 4.59,48.16 1.77,72.11 -2.6,20.52 -8.02,41 -18.55,58.95 -8.14,13.95 -19.71,25.97 -33.66,34.15 0.18,11.45 -0.95,22.93 -3.5,34.1 8.04,-11.52 15.82,-23.54 26.83,-32.5 13.49,-10.97 29.02,-19.26 45.21,-25.49 -1.83,16.97 -6.41,33.6 -13.09,49.29 -7.35,16.9 -17.74,32.92 -32.32,44.45 32.58,-0.15 65.16,0.01 97.74,-0.08 2.07,-0.13 4.46,-0.38 5.95,-1.99 1.52,-2.17 0.3,-5.02 -0.88,-7.05 -15.31,-23.3 -30.99,-46.35 -46.1,-69.77 -10.77,-16.74 -14.09,-37.53 -10.77,-57 2.34,-13.08 8.99,-24.79 15.55,-36.15 11.81,-20.55 23.61,-41.1 35.4,-61.65 2.06,-3.69 4.71,-7.2 5.19,-11.53 -1.77,-0.41 -3.56,-0.78 -5.38,-0.75 -28.34,0.02 -56.69,0.01 -85.04,0.01 -9.66,-0.05 -19.33,0.23 -28.98,-0.47 -7.56,19.76 -16.49,39.31 -29.48,56.14 m 30.05,32.86 c -6.66,19.33 -11.26,39.42 -13.23,59.78 -2.4,0.15 -4.79,0.29 -7.19,0.35 -1.12,-11.68 -2.41,-23.34 -3.41,-35.02 -2.51,-0.48 -5.01,-1.02 -7.47,-1.7 4.12,8.09 5.25,17.23 6.92,26.04 2.3,11.18 1.18,22.63 1.44,33.94 -1.46,-1.76 -2.86,-3.57 -4.38,-5.28 -0.45,1.3 -0.9,2.61 -1.35,3.92 -27.69,-11.13 -53.9,-25.47 -80.65,-38.63 -9.14,-4.31 -16.54,-11.43 -23.39,-18.7 3.37,5.55 7.35,10.69 11.27,15.86 9,11.79 20.85,21.16 33.75,28.35 9.17,4.86 18.72,9.49 29.06,11.17 12.16,2.39 24.3,4.9 36.46,7.33 -5.12,3.24 -12.78,4.5 -14.21,11.42 3.71,2.94 8.66,2.61 13.11,2.97 1.43,12.6 -1.87,25.14 -5.97,36.95 -5.44,14.93 -12.84,29.17 -21.8,42.28 -12.21,14.72 -25.81,28.23 -39.03,42.03 -2.58,2.97 -6.14,4.74 -9.36,6.89 -12.05,7.83 -24.16,15.57 -36.2,23.43 3.38,7.48 6.66,15.01 9.98,22.52 18.34,-13.52 35.05,-29.22 50.37,-46.06 13.65,-15.91 25.06,-33.8 33.29,-53.09 13.72,-0.51 26.67,-6.26 38.24,-13.3 13.19,-8.37 25.58,-18.57 34.31,-31.68 11.43,-16.9 18.58,-36.48 22.51,-56.42 -1.3,0.67 -2.6,1.36 -3.88,2.06 0.7,0.24 2.11,0.73 2.81,0.97 -7.42,17.31 -14.72,35.17 -27.08,49.64 -13.86,14.06 -29.54,26.2 -45.22,38.15 -1.42,-1.94 -2.85,-3.84 -4.32,-5.72 14.02,-10.85 28,-21.8 40.92,-33.97 6.18,-5.77 10.63,-13.07 14.77,-20.37 4.51,-8.29 8.53,-16.85 12.1,-25.59 -12.94,6.99 -25.43,15.61 -34.3,27.53 -10.84,14.07 -20.31,29.16 -29.02,44.62 -2.22,-0.93 -4.35,-2.06 -6.5,-3.14 8.99,-20.62 14.52,-43.35 12.44,-65.94 11.36,-5.84 21.35,-14.3 29,-24.53 11.1,-14.75 17.65,-32.44 21.37,-50.39 3.67,-18.24 4.99,-37 3.69,-55.56 -7.04,33.14 -18.89,65.08 -32.93,95.85 -2.76,5.42 -4.97,11.39 -9.32,15.79 -2.26,2.37 -5.55,0.81 -7.25,-1.38 1.33,-0.55 2.66,-1.11 4,-1.67 -0.4,-0.84 -0.83,-1.65 -1.28,-2.43 1.79,-2.65 3.38,-5.42 4.79,-8.28 16.89,-35.42 30.18,-72.76 37.53,-111.36 -16.51,16.87 -27.58,38.28 -35.39,60.37 m -132.5,-58.63 c 8.55,16.75 17.48,33.76 30.65,47.41 12.85,12.06 28.54,21.57 45.84,25.48 4.1,1.14 8.19,2.34 12.26,3.59 -5.77,-3.9 -11.23,-8.22 -17.05,-12.05 -15.05,-9.99 -28.64,-21.96 -42.08,-33.96 -10.51,-9.51 -20.44,-19.67 -29.62,-30.47 m 73.66,10.94 c -0.04,4.15 0,8.31 -0.04,12.46 4.53,5 8.8,10.22 12.97,15.53 -1.92,-4.74 -3.34,-9.7 -3.71,-14.8 -0.35,-5.74 -5.24,-9.67 -9.22,-13.19 m -67.43,15.69 c -0.1,12.24 -0.03,24.48 -0.04,36.72 8.96,1.85 18.09,3.24 26.59,6.81 0.03,-3.72 -0.01,-7.44 0.05,-11.15 -11.18,-8.63 -19.39,-20.39 -26.6,-32.38 m 33.85,37.71 c 0.01,3.01 0.02,6.03 -0.01,9.05 9.14,4.34 17.93,9.39 26.37,14.98 0.01,-3.55 0,-7.09 0.03,-10.63 -9.37,-3.21 -18.25,-7.76 -26.39,-13.4 m -43.38,4.39 c 7.64,9.37 15.98,18.58 26.32,25.02 26.18,13 51.96,26.89 78.91,38.3 -14.38,-18.02 -31.62,-34.07 -51.89,-45.24 -10.74,-5.92 -21.83,-11.8 -34,-14.04 -6.45,-1.32 -12.88,-2.74 -19.34,-4.04 m 76.93,10.83 c 0.01,4.66 0.02,9.32 -0.01,13.98 10.49,8.24 20.02,17.63 28.85,27.6 -0.62,-8.93 -2.47,-17.73 -4.37,-26.47 -0.9,-3.06 -1.5,-6.38 -3.47,-8.95 -6.93,-2.27 -14.04,-3.98 -21,-6.16 m 42.95,9.91 c 0.42,-1.99 0.79,-3.99 1.03,-6.01 -2.44,1.26 -1.25,3.91 -1.03,6.01 m -110.39,15.46 c -0.03,30.31 0.01,60.63 -0.02,90.94 8.86,1.16 17.78,1.66 26.65,2.71 -0.09,-23.28 0.04,-46.57 -0.06,-69.85 -10.06,-6.46 -18.94,-14.63 -26.57,-23.8 m 33.87,93.64 c 8.78,-1.06 17.63,-1.53 26.41,-2.72 -0.04,-17.05 -0.04,-34.1 -0.01,-51.15 -9.17,-2.85 -18,-6.74 -26.35,-11.47 -0.06,21.78 0.04,43.56 -0.05,65.34 m 33.59,-52.56 c -0.04,16.91 0.05,33.82 -0.05,50.74 6.22,2.94 12.45,5.85 18.79,8.51 5.06,-12.11 9.48,-24.77 10.03,-38 -4.33,-0.63 -9.32,-1.74 -11.89,-5.64 -2.43,-3.73 -0.97,-8.4 1.13,-11.91 -5.99,-1.34 -12.03,-2.4 -18.01,-3.7 m 310.38,48.6 c 0.02,4.97 0.01,9.94 0.01,14.91 8.66,-0.01 17.32,-0.01 25.99,0.01 0.02,2.37 0.02,4.75 0.04,7.13 -30.54,0.07 -61.08,-0.01 -91.62,0.04 1.09,2.42 2.1,4.88 3,7.4 25.14,0.03 50.29,0 75.44,0.01 7.38,-0.07 14.89,0.47 22.14,-1.33 1.12,-3.3 2.97,-6.9 1.65,-10.42 -0.86,-2.91 -3.76,-4.38 -6.22,-5.74 -9.73,-4.97 -20.11,-8.49 -30.43,-12.01 m -402.26,18.27 c 6.11,2.69 12.18,5.45 18.23,8.27 1.25,0.45 2.43,1.35 3.82,1.21 10.94,-1.55 21.96,-2.8 33.02,-2.91 11.02,0.24 22.02,1.41 32.92,3.07 5.72,-2.82 11.65,-5.24 17.38,-8.03 1.17,-0.44 1.49,-1.7 2.02,-2.68 -6.69,-2.82 -13.18,-6.08 -19.88,-8.86 -9.38,1.64 -18.89,2.56 -28.4,2.96 -12.66,0.54 -25.25,-1.25 -37.78,-2.76 -7.21,2.99 -14.35,6.23 -21.33,9.73 m -318.27,5.8 c -4.71,3.4 -4.86,10.67 -1.08,14.78 2.85,2.56 6.9,2.62 10.5,2.87 26.7,0 53.41,0.02 80.11,-0.01 0.63,-2.28 1.2,-4.56 1.79,-6.83 -27.15,-0.05 -54.3,-0.02 -81.45,-0.02 0,-2.39 0,-4.79 0,-7.17 7,0.02 13.99,-0.01 20.99,0.02 0.02,-4.58 0,-9.16 0.03,-13.74 -9.96,4.46 -21.98,3.21 -30.89,10.1 m 410.25,10.03 c 0.02,2.89 0,5.78 0.04,8.68 3.62,-3.73 5.92,-8.45 8.6,-12.84 -2.86,1.42 -5.77,2.75 -8.64,4.16 m -65.01,0.27 c 0.01,22.23 0.05,44.46 -0.02,66.69 8.24,-5.35 16.49,-10.67 24.75,-15.98 3.42,-2.14 5.84,-5.46 8.73,-8.21 8.08,-8.6 16.51,-16.88 24.27,-25.77 0.51,-5.42 0.11,-10.94 0.16,-16.39 -7.87,-1.14 -15.79,-1.91 -23.71,-2.46 -11.43,-0.68 -22.86,0.67 -34.18,2.12 m 314.22,2.48 c 0.3,1.44 0.53,2.96 1.56,4.1 16.07,21.23 31.98,42.59 48.1,63.79 6.98,-0.25 14.08,0.4 20.99,-0.32 7.56,-22.71 14.71,-45.57 22.23,-68.3 -2.31,0.23 -4.58,0.63 -6.89,0.67 -28.66,0.05 -57.33,-0.08 -85.99,0.06 m -227.37,10.67 c -6.08,13.04 -13.35,25.52 -21.81,37.16 -0.01,2.16 -0.05,4.3 -0.08,6.48 5.73,-9.59 11.14,-19.35 16.84,-28.95 3.27,-5.51 7.01,-10.75 11.4,-15.43 -2.12,0.26 -4.23,0.54 -6.35,0.74 M 27.2,500.08 c 8.56,22.71 16.93,45.5 25.41,68.24 6.38,-0.01 12.76,0.02 19.14,-0.02 12.3,-22.68 24.71,-45.31 37.17,-67.9 -27.23,-0.27 -54.49,0.35 -81.72,-0.32 m 655.78,2.09 c -1.66,7.16 -4.02,14.45 -8.41,20.41 -23.75,26.23 -48.96,51.28 -76.71,73.3 -29.79,23.91 -65.21,39.72 -101.36,51.36 -22.36,6.91 -45.31,12.36 -68.67,14.41 -3.35,4.69 -6.82,9.51 -11.7,12.75 -7.04,4.66 -15.84,6.03 -24.11,4.92 -9.15,-1.75 -16.56,-8.24 -22.08,-15.43 -28.24,-4.77 -56.26,-11.02 -83.61,-19.55 -16.63,-5.29 -33.11,-11.47 -48.17,-20.38 -17.77,-10.43 -34.18,-23.01 -50.01,-36.16 -15.16,-12.73 -29.82,-26.08 -43.8,-40.11 -7.74,-7.96 -16.27,-15.1 -23.93,-23.15 -4.13,-4.56 -6.22,-10.53 -7.49,-16.46 -16.29,29.77 -32.55,59.55 -48.92,89.27 42.54,47.6 92.46,89.61 150.13,117.66 41.06,20.06 85.65,32.62 131.01,37.84 72.6,8.61 147.62,0.75 215.77,-26.29 37.32,-14.71 72.42,-34.92 104.16,-59.43 30.32,-23.32 57.45,-50.61 81.57,-80.27 -21.22,-28.23 -42.55,-56.38 -63.67,-84.69 m -48.04,25.67 c -14.2,-0.04 -28.4,0.04 -42.6,-0.04 11.96,10.66 24.05,21.18 36.05,31.8 12.59,-12.06 24.94,-24.41 36.63,-37.36 -9.56,3.72 -19.81,5.86 -30.08,5.6 m -129.66,8.38 c -8.91,6.77 -15.76,15.89 -21.69,25.28 -17.18,30.79 -34.29,61.62 -51.43,92.43 29.99,-3.39 59.3,-11.68 87.41,-22.53 19.17,-7.64 37.9,-16.58 55.26,-27.78 17.22,-11.51 33.08,-24.92 48.2,-39.03 -13.96,-12.26 -27.83,-24.63 -41.88,-36.79 -13.38,0.15 -26.76,-0.06 -40.13,-0.08 -12.19,0.79 -25.24,1.59 -35.74,8.5 m -366.42,-4.03 c 11.34,10.85 22.2,22.18 33.97,32.56 10.5,-9.72 21.12,-19.31 31.71,-28.93 -12.85,0 -25.71,-0.01 -38.56,0.01 -9.15,0.07 -18.31,-1.17 -27.12,-3.64 m 39.37,37.49 c 19.73,17.26 40.1,34.01 62.67,47.46 16.46,9.86 34.64,16.36 52.92,21.92 23.34,7 47.16,12.31 71.13,16.67 -16.4,-27.24 -32.62,-54.59 -48.94,-81.87 -4.72,-7.79 -8.81,-16.1 -15.14,-22.76 -5.46,-5.55 -12.32,-9.63 -19.61,-12.31 -7.1,-2.6 -14.76,-2.77 -22.23,-2.98 -14.61,0.18 -29.28,-0.3 -43.86,0.23 -12.39,11.12 -24.68,22.37 -36.94,33.64 m 190.15,29.8 c 19.46,0.27 38.94,0.06 58.41,0.11 -0.08,-18.02 0.02,-36.04 -0.05,-54.05 -17.32,20.11 -37.07,38.12 -58.36,53.94 m -2.18,7.72 c -4.64,1.11 -7.95,6.19 -6.87,10.89 0.71,4.44 5.07,7.96 9.59,7.58 19.37,-0.03 38.75,0.01 58.13,-0.01 6.19,0.32 11.18,-6.92 8.66,-12.6 -1.32,-4.05 -5.62,-6.43 -9.75,-6.27 -18.32,-0.02 -36.65,0.02 -54.98,-0.02 -1.6,0 -3.23,0 -4.78,0.43 m -9.28,21.14 c 5.11,8.19 9.89,16.57 14.94,24.8 3.41,5.41 7.18,10.81 12.37,14.67 5.33,3.98 12.41,5.52 18.91,4.04 8.16,-1.24 14.02,-7.9 18.36,-14.41 5.86,-9.19 10.74,-18.96 16.21,-28.38 -2.8,2.11 -6.09,3.87 -9.7,3.76 -20.33,0.01 -40.65,0.03 -60.98,-0.01 -3.84,-0.01 -7.28,-2.05 -10.11,-4.47 z"
       id="path84"
       inkscape:connector-curvature="0"
       style="fill:#010103" />
    <path
       d="m 675.52,552.34 c 2.42,-3.04 4.9,-6.05 7.34,-9.08 5.71,4.78 11.51,9.46 17.35,14.09 -2.1,2.82 -4.31,5.57 -6.61,8.23 7.12,0.93 14.3,1.46 21.44,2.29 -1.05,2.21 -2.87,3.91 -4.34,5.83 -6.97,8.65 -14.01,17.25 -20.96,25.91 -3.05,-2.34 -5.99,-4.8 -9.01,-7.14 3.82,-5.17 8.05,-10.03 12.06,-15.05 -11.6,-1.14 -23.21,-2.35 -34.84,-3.25 2.94,-3.68 5.67,-7.59 8.98,-10.93 8.36,0.55 16.67,1.64 25.01,2.38 -5.48,-4.42 -10.95,-8.85 -16.42,-13.28 z"
       id="path86"
       inkscape:connector-curvature="0"
       style="fill:#010103" />
    <path
       d="m 104.87,559.96 c 4.33,-3.49 8.63,-7.01 12.96,-10.48 2.42,3.02 4.91,5.99 7.21,9.11 -1.31,1.03 -2.61,2.08 -3.9,3.16 6.04,7.08 11.7,14.49 17.7,21.6 -5.88,4.9 -11.89,9.63 -17.79,14.5 -1.21,0.93 -2.38,2.23 -4.08,1.98 -5.79,0.09 -11.57,-0.32 -17.36,-0.09 -3.29,-3.87 -6.46,-7.84 -9.57,-11.84 8.04,0.34 16.09,0.31 24.13,0.58 2.75,-2.29 5.54,-4.51 8.32,-6.75 -5.84,-7.29 -11.76,-14.51 -17.62,-21.77 z"
       id="path88"
       inkscape:connector-curvature="0"
       style="fill:#010103" />
    <path
       d="m 622.5,611.47 c 9.22,-9.45 18.28,-19.05 27.51,-28.49 6.97,6.77 14.07,13.41 20.98,20.24 1.03,-1.1 2.08,-2.18 3.13,-3.27 2.94,2.57 5.68,5.35 8.54,8.01 -10.27,10.6 -20.61,21.14 -30.76,31.85 -2.78,-2.71 -5.58,-5.39 -8.35,-8.1 6.4,-6.72 12.92,-13.34 19.36,-20.03 -4.07,-4.21 -8.39,-8.18 -12.56,-12.29 -6.49,6.69 -13,13.36 -19.49,20.06 -2.84,-2.61 -5.55,-5.35 -8.36,-7.98 z"
       id="path90"
       inkscape:connector-curvature="0"
       style="fill:#010103" />
    <path
       d="m 143.09,587.81 c 3.42,3.18 6.58,6.62 9.79,10.01 -1.32,6.45 -2.63,12.89 -3.94,19.35 2.11,0.16 4.23,0.36 6.34,0.61 2.88,-2.9 5.9,-5.66 8.76,-8.57 2.63,2.81 5.34,5.56 8.01,8.35 -4.24,4.17 -8.34,8.64 -13.02,12.24 -4.18,-0.14 -8.34,-0.53 -12.49,-1 -1.28,5.7 -2.38,11.43 -3.71,17.11 -3.29,-3.19 -6.37,-6.59 -9.66,-9.78 1.22,-6.36 2.68,-12.66 3.82,-19.02 -2.07,-0.24 -4.14,-0.43 -6.21,-0.63 -2.89,2.72 -5.67,5.58 -8.64,8.23 -2.61,-2.86 -5.29,-5.64 -7.97,-8.43 4.33,-3.93 8.48,-8.06 12.66,-12.16 4.23,0.31 8.45,0.82 12.66,1.31 1.26,-5.86 2.42,-11.74 3.6,-17.62 z"
       id="path92"
       inkscape:connector-curvature="0"
       style="fill:#010103" />
    <path
       d="m 605.6,622.87 c 3.05,-2.42 6.18,-4.74 9.31,-7.06 3.5,4.74 7.05,9.44 10.64,14.12 -0.89,4.23 -1.84,8.46 -2.56,12.74 5.48,1.75 10.88,3.74 16.36,5.52 -3.46,3.06 -7.3,5.66 -10.93,8.5 -6.12,-2.03 -12.23,-4.09 -18.34,-6.13 -0.43,1.97 -0.84,3.96 -1.4,5.9 2.25,3.33 4.7,6.51 7.17,9.68 -3.1,2.33 -6.15,4.73 -9.35,6.91 -3.56,-4.71 -7.12,-9.4 -10.63,-14.14 1.04,-4.09 1.9,-8.21 2.87,-12.31 -5.51,-1.82 -11.03,-3.63 -16.53,-5.48 0.01,-0.15 0.02,-0.45 0.02,-0.61 3.4,-2.86 7.09,-5.36 10.61,-8.08 6.21,2.2 12.52,4.13 18.73,6.35 0.47,-2.17 0.91,-4.34 1.28,-6.52 -2.49,-3.08 -4.81,-6.28 -7.25,-9.39 z"
       id="path94"
       inkscape:connector-curvature="0"
       style="fill:#010103" />
    <path
       d="m 174.33,630.11 c 2.36,-3.01 4.65,-6.07 6.86,-9.18 10.01,7.12 19.64,14.75 29.53,22.04 -8.26,10.82 -16.37,21.76 -24.64,32.57 -3.03,-2.36 -6.11,-4.65 -9.19,-6.94 5.78,-7.84 11.72,-15.57 17.54,-23.39 -6.73,-4.99 -13.39,-10.08 -20.1,-15.1 z"
       id="path96"
       inkscape:connector-curvature="0"
       style="fill:#010103" />
    <path
       d="m 218.04,646.4 c 3.46,1.82 6.97,3.54 10.43,5.35 -4.6,8.59 -9,17.3 -13.29,26.05 2.34,1.08 4.66,2.23 6.95,3.43 4.54,-8.63 8.76,-17.42 13.37,-26.02 3.39,1.87 6.88,3.55 10.28,5.38 -4.57,8.64 -8.97,17.37 -13.33,26.12 2.66,1.71 6.4,2.31 8.75,-0.18 4.04,-7.4 7.59,-15.07 11.62,-22.48 3.36,1.81 6.74,3.58 10.21,5.2 -4.36,8.76 -8.77,17.52 -13.35,26.16 -4.44,1.78 -9.08,2.98 -13.58,4.6 -1.51,0.92 -3.02,-0.26 -4.37,-0.82 -10.7,-5.52 -21.42,-10.99 -32.18,-16.39 6.11,-12.17 12.36,-24.25 18.49,-36.4 z"
       id="path98"
       inkscape:connector-curvature="0"
       style="fill:#010103" />
    <path
       d="m 517.98,672.74 c 11.93,-5.42 23.91,-10.75 35.92,-15.99 5.46,12.44 11.03,24.82 16.55,37.24 -3.58,1.51 -7.12,3.13 -10.65,4.74 -3.95,-8.9 -7.96,-17.77 -11.87,-26.69 -8.41,3.72 -16.82,7.46 -25.2,11.24 -1.57,-3.52 -3.12,-7.06 -4.75,-10.54 z"
       id="path100"
       inkscape:connector-curvature="0"
       style="fill:#010103" />
    <path
       d="m 267.11,689.17 c 1.55,-5.73 3.28,-11.42 4.85,-17.14 3.65,1.01 7.28,2.12 10.97,3.01 -1.19,5.87 -3.18,11.55 -4.77,17.32 -3.66,-1.14 -7.35,-2.18 -11.05,-3.19 z"
       id="path102"
       inkscape:connector-curvature="0"
       style="fill:#010103" />
    <path
       d="m 291.16,672.41 c 3.81,0.85 7.55,1.99 11.28,3.16 -0.47,1.59 -0.93,3.19 -1.36,4.8 8.96,2.48 17.84,5.24 26.83,7.6 -2.42,8.52 -4.51,17.21 -7.52,25.52 -5.04,3.59 -10.22,7.01 -15.39,10.43 -4.76,-1.4 -9.52,-2.79 -14.3,-4.11 6.35,-4.8 13.27,-8.79 19.72,-13.44 1.62,-3.26 2.1,-6.98 3.22,-10.43 -9.03,-2.44 -18,-5.12 -26.99,-7.69 1.64,-5.24 3.24,-10.5 4.51,-15.84 z"
       id="path104"
       inkscape:connector-curvature="0"
       style="fill:#010103" />
    <path
       d="m 470.67,685.79 c 12.78,-2.85 25.49,-6.1 38.33,-8.69 2.67,13.29 6.22,26.39 8.89,39.68 -3.74,0.81 -7.48,1.59 -11.16,2.61 -2.27,-9.49 -4.42,-19 -6.61,-28.5 -8.99,1.95 -17.89,4.28 -26.9,6.08 -0.91,-3.72 -1.75,-7.45 -2.55,-11.18 z"
       id="path106"
       inkscape:connector-curvature="0"
       style="fill:#010103" />
    <path
       d="m 526.49,691.86 c 3.56,-1.56 7.1,-3.15 10.64,-4.75 2.69,6.01 5.29,12.07 8.08,18.04 -3.54,1.6 -7.06,3.2 -10.61,4.77 -2.75,-6 -5.31,-12.09 -8.11,-18.06 z"
       id="path108"
       inkscape:connector-curvature="0"
       style="fill:#010103" />
    <path
       d="m 435.49,690.48 c 5.51,-0.58 11.03,-1.04 16.55,-1.39 4.61,13.19 9.29,26.36 14.04,39.5 -4.01,0.5 -8.04,0.89 -12.07,1.01 -1.58,-4.56 -3.13,-9.12 -4.93,-13.59 -0.54,4.73 -0.68,9.5 -1.34,14.22 -4.01,0.4 -8.02,0.7 -12.02,1.17 0.81,-5.52 1.26,-11.08 1.95,-16.61 3.53,-0.22 7.05,-0.56 10.59,-0.79 -1.2,-4.29 -2.7,-8.47 -4.05,-12.7 -2.59,0.22 -5.17,0.41 -7.74,0.59 -0.33,-3.81 -0.82,-7.6 -0.98,-11.41 z"
       id="path110"
       inkscape:connector-curvature="0"
       style="fill:#010103" />
    <path
       d="m 409.73,692.76 c 6.02,-0.34 12,-1.07 18.02,-1.47 1.44,13.46 2.22,26.98 3.72,40.43 -6.03,0.8 -12.11,1.03 -18.14,1.8 -0.6,-3.88 -0.78,-7.8 -1.02,-11.71 2.16,-0.16 4.33,-0.28 6.49,-0.42 -0.43,-5.89 -1.12,-11.76 -1.54,-17.65 -2.19,0.28 -4.39,0.52 -6.58,0.72 -0.25,-3.91 -0.67,-7.8 -0.95,-11.7 z"
       id="path112"
       inkscape:connector-curvature="0"
       style="fill:#010103" />
    <path
       d="m 360.87,691.15 c 13.04,0.98 26.05,2.2 39.07,3.38 -1.04,13.5 -2.26,26.99 -3.51,40.48 -3.92,-0.38 -7.9,-0.34 -11.73,-1.3 1.25,-9.56 1.85,-19.21 2.73,-28.82 -9.21,-0.56 -18.39,-1.53 -27.58,-2.36 0.61,-3.77 0.72,-7.59 1.02,-11.38 z"
       id="path114"
       inkscape:connector-curvature="0"
       style="fill:#010103" />
    <path
       d="m 475.4,706.15 c 3.72,-0.74 7.43,-1.58 11.11,-2.52 1.64,6.43 3.2,12.88 4.45,19.4 -3.76,0.67 -7.45,1.62 -11.14,2.53 -1.48,-6.47 -3.08,-12.91 -4.42,-19.41 z"
       id="path116"
       inkscape:connector-curvature="0"
       style="fill:#010103" />
    <path
       d="m 359.24,712.05 c 3.77,0.31 7.54,0.67 11.33,0.79 -0.3,6.62 -1.17,13.2 -1.64,19.82 -3.84,-0.32 -7.69,-0.61 -11.52,-1.06 0.68,-6.51 0.98,-13.06 1.83,-19.55 z"
       id="path118"
       inkscape:connector-curvature="0"
       style="fill:#010103" />
  </g>
</svg>
